<?xml version="1.0" encoding="utf-8"?>
<svg version="1.1" id="Layer_1" xmlns="http://www.w3.org/2000/svg" xmlns:xlink="http://www.w3.org/1999/xlink" x="0px" y="0px"
	 viewBox="-22 -22 64 64" style="enable-background:new 0 0 20 20;" xml:space="preserve">
<style type="text/css">
	.st0{fill:#FFFFFF;stroke:#B6B6B6;stroke-width:0.15;}
	.st1{fill:#9E3039;}
	.st2{fill:#CCCCCC;}
</style>
<circle class="st0" cx="10" cy="10" r="28.8000011"/>
<path class="st1" d="M38.2210007,15.7600002h-56.4420013C-15.5509996,28.9030018-3.9320002,38.8000031,10,38.8000031
	S35.5510025,28.9030018,38.2210007,15.7600002z"/>
<path class="st1" d="M10-18.7999992c-13.9320002,0-25.5510006,9.8969994-28.2209988,23.039999h56.4420013
	C35.5510025-8.9029999,23.9319992-18.7999992,10-18.7999992z"/>
<path class="st2" d="M10-18.5c15.5999985,0,28.5,12.9000006,28.5,28.5S25.5999985,38.5,10,38.5S-18.5,25.5999985-18.5,10
	S-5.5999994-18.5,10-18.5 M10-20C-6.5-20-20-6.5-20,10s13.5,30,30,30s30-13.5,30-30S26.5-20,10-20L10-20z"/>
</svg>
